<svg id="Layer_1" data-name="Layer 1" xmlns="http://www.w3.org/2000/svg" viewBox="0 0 128.95 145.36"><defs><style>.cls-1{fill:#689f63;}</style></defs><title>js</title><path class="cls-1" d="M306.53,313.24a11.25,11.25,0,0,1-5.59-1.49l-17.78-10.53c-2.66-1.49-1.36-2-.48-2.32a36.19,36.19,0,0,0,8-3.66,1.33,1.33,0,0,1,1.32.09l13.66,8.11a1.84,1.84,0,0,0,1.65,0l53.27-30.75a1.68,1.68,0,0,0,.81-1.44V209.78a1.7,1.7,0,0,0-.82-1.46L307.36,177.6a1.61,1.61,0,0,0-1.64,0l-53.23,30.72a1.68,1.68,0,0,0-.85,1.45v61.47a1.63,1.63,0,0,0,.83,1.42l14.59,8.43c7.92,4,12.76-.71,12.76-5.4V215a1.52,1.52,0,0,1,1.54-1.53h6.75a1.52,1.52,0,0,1,1.53,1.53v60.7c0,10.56-5.76,16.62-15.77,16.62-3.08,0-5.51,0-12.28-3.33l-14-8.05a11.26,11.26,0,0,1-5.59-9.72V209.77a11.2,11.2,0,0,1,5.59-9.71l53.32-30.76a11.72,11.72,0,0,1,11.2,0l53.25,30.78a11.22,11.22,0,0,1,5.59,9.7v61.47a11.27,11.27,0,0,1-5.59,9.71l-53.25,30.76a11.28,11.28,0,0,1-5.62,1.49" transform="translate(-242.03 -167.88)"/><path class="cls-1" d="M325.32,236c-16.53-2.19-18.21-3.32-18.21-7.2,0-3.2,1.42-7.47,13.68-7.47,10.94,0,15,2.36,16.64,9.73a1.51,1.51,0,0,0,1.49,1.2h6.92a1.56,1.56,0,0,0,1.55-1.68c-1.07-12.72-9.52-18.64-26.58-18.64-15.18,0-24.25,6.4-24.25,17.15,0,11.67,9,14.88,23.6,16.32,17.44,1.71,18.8,4.25,18.8,7.68,0,6-4.77,8.49-16,8.49-14.09,0-17.19-3.54-18.23-10.55a1.54,1.54,0,0,0-1.52-1.3h-6.88a1.53,1.53,0,0,0-1.54,1.53c0,9,4.89,19.67,28.19,19.67l-.07.07c16.88,0,26.56-6.66,26.56-18.26S341.69,238.12,325.32,236Z" transform="translate(-242.03 -167.88)"/></svg>